# xmcd
#
# Track frame offsets:
#	150
#	17047
#	33991
#	47236
#	63103
#	78117
#	94167
#	114735
#	130718
#	143932
#	156605
#	169239
#	182816
#	196050
#	209354
#
# Disc length: 2949 seconds
#
# Revision: 0
# Processed by: cddbd v1.5.2PL0 Copyright (c) Steve Scherf et al.
# Submitted via: EasyCDDAExtractor 16.0.6.1
#
DISCID=ce0b830f
DTITLE=Καζαντζίδης Στέλιος - Καζαντζίδης Στέλιος 1
DYEAR=2009
DGENRE=Λαϊκή
TTITLE0=Καζαντζίδης Στέλιος - Ο τραγουδιστής [Χ. Νικολόπουλος-Μ. Μπιζάνη]
TTITLE1=Καζαντζίδης Στέλιος - Καρδιά παραπονιάρα [Α. Χατζηχρήστος-Γ. Λελάκης]
TTITLE2=Καζαντζίδης Στέλιος - Ο Αντώνης ο βαρκάρης [Σ. Περιστέρης-Μ. Μάτσας]
TTITLE3=Καζαντζίδης Στέλιος - Το καπηλειό [Γιώργος Μητσάκης]
TTITLE4=Καζαντζίδης Στέλιος - Ήθελα νά 'μουνα πασάς [Στέλιος Χρυσίνης]
TTITLE5=Καζαντζίδης Στέλιος - Ηλιοβασίλεμα σωστό [Γ. Λαύκας-Κ. Μάνεσης]
TTITLE6=Καζαντζίδης Στέλιος - Δε φταίς εσύ [Τ. Σούκας-Β. Παπαδόπουλος]
TTITLE7=Καζαντζίδης Στέλιος - Τι μπορείς να πεις [Χ. Νικολόπουλος-Β. Ατραΐδης]
TTITLE8=Καζαντζίδης Στέλιος - Όταν μεθάει ο άνθρωπος [Μ. Μπακάλης-Δ. Γκούτης]
TTITLE9=Καζαντζίδης Στέλιος - Νέα Ιωνία [Χ. Νικολόπουλος-Πυθαγόρας]
TTITLE10=Καζαντζίδης Στέλιος - Πίκρα κι άδικο [Θ. Πολυκανδριώτης-Λ. Χαψιάδης]
TTITLE11=Καζαντζίδης Στέλιος-Μαρινέλλα - Ζιγκουάλα [Σ. Καζαντζίδης-Ν. Μουρκάκο
TTITLE11=ς]
TTITLE12=Καζαντζίδης Στέλιος - Αυτή η νύχτα μένει [Στέλιος Καζαντζίδης]
TTITLE13=Καζαντζίδης Στέλιος-Μαρινέλλα - Κοινωνία ένοχη [Σ. Καζαντζίδης-Χ. Κολ
TTITLE13=οκοτρώνης]
TTITLE14=Καζαντζίδης Στέλιος - Ίσως αύριο [Βασίλης Τσιτσάνης]
EXTD=
EXTT0=
EXTT1=
EXTT2=
EXTT3=
EXTT4=
EXTT5=
EXTT6=
EXTT7=
EXTT8=
EXTT9=
EXTT10=
EXTT11=
EXTT12=
EXTT13=
EXTT14=
PLAYORDER=
